<?xml version="1.0" standalone="no"?>
<!DOCTYPE svg PUBLIC "-//W3C//DTD SVG 20010904//EN"
 "http://www.w3.org/TR/2001/REC-SVG-20010904/DTD/svg10.dtd">
<svg version="1.0" xmlns="http://www.w3.org/2000/svg"
 width="400.000000pt" height="400.000000pt" viewBox="0 0 400.000000 400.000000"
 preserveAspectRatio="xMidYMid meet">

<g transform="translate(0.000000,400.000000) scale(0.100000,-0.100000)"
fill="#000000" stroke="none">
<path d="M1700 3173 c-170 -22 -450 -96 -595 -158 -143 -61 -299 -159 -360
-226 -57 -64 -87 -134 -87 -204 -1 -73 15 -108 83 -187 27 -31 48 -62 47 -69
-2 -7 5 -15 15 -17 27 -6 57 -39 57 -62 0 -15 7 -20 25 -20 13 0 35 -5 49 -11
19 -9 23 -16 16 -28 -12 -24 2 -42 30 -39 12 2 25 -3 27 -9 3 -7 -3 -13 -12
-13 -10 0 -15 -7 -13 -17 2 -10 9 -18 17 -18 11 0 13 -79 12 -440 -1 -243 1
-459 5 -482 5 -35 11 -43 33 -47 30 -7 217 -28 486 -56 433 -46 562 -58 595
-54 142 17 694 78 819 90 85 9 165 20 178 25 l23 9 -2 702 -3 703 -50 5 c-42
4 -50 8 -55 30 -3 14 -14 26 -23 28 -16 3 -17 -40 -17 -661 l0 -665 -32 -6
c-18 -3 -91 -13 -163 -21 -151 -18 -392 -47 -584 -71 -74 -9 -157 -14 -185
-10 -28 3 -145 17 -261 31 -115 14 -286 34 -380 45 -93 11 -185 23 -202 26
l-33 6 0 393 c0 384 0 393 20 398 26 7 26 33 -1 40 -38 10 -11 25 28 17 21 -5
51 -12 66 -15 22 -4 27 -10 22 -24 -3 -11 -2 -22 3 -24 13 -9 35 9 28 22 -4 6
0 11 8 11 9 0 16 -6 16 -12 0 -7 12 -24 25 -37 14 -12 39 -41 57 -64 l32 -40
-29 6 c-77 15 -155 19 -155 8 0 -6 2 -11 5 -11 39 0 224 -36 241 -46 17 -12
23 -12 26 -3 3 10 40 8 164 -9 252 -35 264 -36 264 -23 0 14 -12 16 -215 41
-246 30 -225 23 -225 80 0 49 17 80 46 80 7 0 76 -9 151 -19 250 -35 246 -35
241 -20 -3 10 -58 21 -181 38 -163 22 -176 25 -179 45 -2 13 -10 20 -21 20
-10 -1 -16 3 -14 10 2 7 29 11 70 11 36 0 69 3 73 7 4 4 13 3 20 -3 16 -13 48
-4 39 11 -13 21 39 31 115 22 87 -10 110 -7 110 19 0 22 -20 25 -38 7 -10 -10
-15 -10 -22 2 -14 23 6 35 55 33 37 -1 45 2 45 16 0 21 45 44 70 36 17 -5 34
9 35 28 0 14 20 2 20 -13 0 -8 8 -16 19 -18 16 -3 18 0 12 22 -4 18 -2 26 6
27 79 4 149 11 173 19 17 4 132 21 258 36 163 21 227 32 227 41 0 16 21 18
-240 -17 -124 -17 -251 -33 -282 -35 -32 -2 -62 -6 -68 -10 -13 -8 -42 13 -35
25 8 13 59 19 72 8 15 -12 33 -2 33 18 0 12 -7 14 -30 9 -37 -8 -38 4 -4 34
24 21 27 21 38 5 14 -19 36 -12 36 12 0 8 -9 14 -21 14 -18 0 -20 2 -8 16 7 9
21 13 33 10 11 -3 26 0 33 6 9 7 17 7 28 -2 16 -14 35 -6 35 16 0 9 -10 14
-27 14 -25 0 -25 1 -10 18 10 10 17 26 17 34 0 9 6 21 14 27 8 7 16 45 21 102
6 89 6 93 -24 154 -20 40 -51 82 -84 112 -63 57 -185 119 -276 140 -65 14
-350 26 -421 16z m434 -48 c75 -21 174 -69 219 -106 42 -34 97 -139 97 -183 0
-86 -60 -186 -184 -309 -90 -89 -157 -137 -266 -192 -137 -69 -346 -135 -428
-135 -39 0 -64 -60 -71 -169 l-6 -84 -51 55 c-54 60 -89 121 -80 143 3 9 -14
16 -62 25 -247 46 -527 203 -593 332 -27 52 -25 130 5 193 90 189 508 381 981
449 73 10 381 -3 439 -19z"/>
<path d="M1430 2815 l0 -125 30 0 30 0 0 125 0 125 -30 0 -30 0 0 -125z"/>
<path d="M1650 2815 l0 -125 30 0 30 0 0 109 c0 127 -4 141 -36 141 l-24 0 0
-125z"/>
<path d="M1416 2535 c-11 -29 -7 -73 10 -108 48 -100 218 -117 273 -26 25 41
35 97 23 129 -9 24 -10 24 -17 5 -24 -76 -72 -109 -144 -102 -52 6 -89 31
-117 81 -17 30 -23 34 -28 21z"/>
<path d="M2492 2609 c2 -6 8 -10 13 -10 5 0 11 4 13 10 2 6 -4 11 -13 11 -9 0
-15 -5 -13 -11z"/>
<path d="M2421 2497 c-9 -12 -8 -16 3 -20 19 -7 32 11 19 24 -6 6 -14 5 -22
-4z"/>
<path d="M2385 2440 c-4 -6 -3 -16 3 -22 6 -6 12 -6 17 2 4 6 3 16 -3 22 -6 6
-12 6 -17 -2z"/>
<path d="M2240 2315 c0 -10 7 -15 18 -13 21 4 19 22 -2 26 -10 2 -16 -3 -16
-13z"/>
<path d="M2675 2275 c-93 -13 -245 -34 -337 -46 -118 -16 -168 -27 -168 -36 0
-8 9 -11 28 -8 29 5 215 30 495 66 127 17 177 27 177 36 0 16 14 16 -195 -12z"/>
<path d="M2081 2280 c-14 -8 -8 -40 7 -40 5 0 15 6 21 14 15 17 -8 39 -28 26z"/>
<path d="M2145 2270 c-7 -12 2 -30 16 -30 5 0 9 9 9 20 0 21 -15 27 -25 10z"/>
<path d="M806 2262 c-3 -6 -1 -14 5 -17 15 -10 25 3 12 16 -7 7 -13 7 -17 1z"/>
<path d="M2210 2260 c0 -5 5 -10 10 -10 6 0 10 5 10 10 0 6 -4 10 -10 10 -5 0
-10 -4 -10 -10z"/>
<path d="M2040 2205 c0 -10 7 -15 18 -13 21 4 19 22 -2 26 -10 2 -16 -3 -16
-13z"/>
<path d="M2110 2199 c0 -5 5 -7 10 -4 6 3 10 8 10 11 0 2 -4 4 -10 4 -5 0 -10
-5 -10 -11z"/>
<path d="M885 2190 c-8 -14 3 -30 21 -30 8 0 14 9 14 20 0 21 -24 28 -35 10z"/>
<path d="M1812 2171 c-10 -6 -10 -10 3 -21 18 -15 42 0 31 19 -8 13 -16 14
-34 2z"/>
<path d="M1877 2164 c-9 -10 2 -24 19 -24 8 0 14 7 14 15 0 15 -21 21 -33 9z"/>
<path d="M1940 2150 c0 -5 4 -10 9 -10 6 0 13 5 16 10 3 6 -1 10 -9 10 -9 0
-16 -4 -16 -10z"/>
<path d="M2685 2114 c-359 -49 -471 -64 -492 -64 -14 0 -23 -6 -23 -16 0 -12
8 -14 43 -9 198 26 642 85 649 85 4 0 8 7 8 15 0 8 -3 15 -7 14 -5 -1 -84 -12
-178 -25z"/>
<path d="M1647 2123 c-13 -12 -7 -23 13 -23 11 0 20 7 20 15 0 15 -21 21 -33
8z"/>
<path d="M1715 2120 c-7 -12 2 -30 16 -30 12 0 12 27 0 35 -5 3 -12 1 -16 -5z"/>
<path d="M1237 2103 c-4 -3 -7 -12 -7 -20 0 -15 26 -18 34 -4 7 11 -18 33 -27
24z"/>
<path d="M2670 1949 c-289 -40 -436 -59 -462 -59 -26 0 -46 -15 -35 -27 3 -3
59 2 124 11 65 8 206 27 313 41 239 31 260 35 260 46 0 13 -44 10 -200 -12z"/>
<path d="M1280 1800 c0 -13 17 -16 235 -45 105 -13 241 -31 304 -40 63 -8 125
-15 138 -15 40 0 25 17 -19 24 -24 3 -113 15 -198 26 -85 11 -219 30 -298 40
-166 23 -162 23 -162 10z"/>
<path d="M2690 1789 c-120 -17 -360 -49 -477 -65 -24 -3 -43 -10 -43 -16 0
-13 25 -10 390 38 303 40 310 41 310 54 0 13 -18 12 -180 -11z"/>
<path d="M1280 1638 c0 -15 14 -17 450 -73 107 -14 207 -27 223 -30 19 -3 27
0 27 10 0 8 -7 15 -15 15 -21 0 -585 75 -652 87 -25 4 -33 2 -33 -9z"/>
<path d="M2705 1629 c-135 -19 -391 -54 -482 -65 -30 -4 -53 -12 -53 -18 0
-13 27 -11 437 43 127 17 239 31 247 31 9 0 16 7 16 15 0 18 2 18 -165 -6z"/>
<path d="M1280 1476 c0 -15 3 -16 235 -46 83 -11 219 -29 304 -40 84 -12 156
-18 159 -15 15 14 -29 24 -223 49 -247 32 -409 54 -447 61 -19 3 -28 0 -28 -9z"/>
<path d="M2730 1470 c-69 -10 -223 -31 -342 -46 -163 -21 -218 -32 -218 -42 0
-10 11 -12 43 -7 104 14 643 85 650 85 4 0 7 7 7 15 0 8 -3 15 -7 14 -5 -1
-64 -9 -133 -19z"/>
</g>
</svg>
