<svg xmlns="http://www.w3.org/2000/svg" xmlns:xlink="http://www.w3.org/1999/xlink" viewBox="0 0 445.69 385.78"><defs><style>.cls-1{fill:#eb3b25;}.cls-2{fill:#370913;}.cls-3,.cls-5,.cls-6,.cls-7{fill:none;}.cls-3,.cls-7{stroke:#542ae2;}.cls-3,.cls-5,.cls-6,.cls-7,.cls-8,.cls-9{stroke-miterlimit:10;}.cls-3{stroke-width:13px;}.cls-4,.cls-9{fill:#fff;}.cls-5{stroke:#f3ebdf;stroke-width:5px;}.cls-6{stroke:#dcc49f;stroke-width:2px;}.cls-7{stroke-width:6px;}.cls-8,.cls-9{stroke:#171b21;}.cls-10{fill:#542ae2;}</style><symbol id="Red_Particle" data-name="Red Particle" viewBox="0 0 8.47 8.47"><circle class="cls-1" cx="4.24" cy="4.24" r="4.24"/></symbol></defs><g id="Cover"><polygon class="cls-2" points="255.48 130.97 66.29 138.12 65.27 363.82 255.48 385.78 445.69 366 445.69 111.57 255.48 130.97"/></g><g id="PageBorder"><polyline class="cls-3" points="89.76 111.76 89.38 340.75 257.76 361.76 421.76 341.76 422.76 103.76"/></g><g id="Pages"><polygon class="cls-4" points="422.78 101.35 421.76 341.76 256.07 364.33 89.38 343.4 89.76 111.76 256.07 120.25 422.78 101.35"/><line class="cls-5" x1="256.07" y1="364.33" x2="256.07" y2="120.25"/><line class="cls-6" x1="256.07" y1="120.25" x2="256.07" y2="364.33"/></g><g id="Text"><line class="cls-7" x1="397.2" y1="159.36" x2="275.2" y2="175.36"/><line class="cls-7" x1="397.2" y1="130.39" x2="275.2" y2="146.39"/><line class="cls-7" x1="397.2" y1="159.36" x2="275.2" y2="175.36"/><line class="cls-7" x1="397.2" y1="130.39" x2="275.2" y2="146.39"/><line class="cls-7" x1="393.17" y1="188.32" x2="271.17" y2="204.32"/><line class="cls-7" x1="397.2" y1="130.39" x2="275.2" y2="146.39"/><line class="cls-7" x1="393.17" y1="217.29" x2="271.17" y2="233.29"/><line class="cls-7" x1="397.2" y1="130.39" x2="275.2" y2="146.39"/><line class="cls-7" x1="393.17" y1="246.25" x2="271.17" y2="262.25"/><line class="cls-7" x1="397.2" y1="130.39" x2="275.2" y2="146.39"/><line class="cls-7" x1="392.19" y1="276.31" x2="270.19" y2="292.31"/><line class="cls-7" x1="397.2" y1="130.39" x2="275.2" y2="146.39"/><line class="cls-7" x1="393.17" y1="306.36" x2="271.17" y2="322.36"/><line class="cls-7" x1="240.76" y1="321.76" x2="115.76" y2="304.76"/><line class="cls-7" x1="240.76" y1="321.76" x2="115.76" y2="304.76"/><line class="cls-7" x1="240.76" y1="292.81" x2="115.76" y2="275.81"/><line class="cls-7" x1="240.76" y1="263.86" x2="115.76" y2="246.86"/><line class="cls-7" x1="240.76" y1="234.91" x2="115.76" y2="217.91"/><line class="cls-7" x1="240.76" y1="205.96" x2="115.76" y2="188.96"/><line class="cls-7" x1="240.76" y1="177.01" x2="115.76" y2="160.01"/><line class="cls-7" x1="240.76" y1="148.06" x2="115.76" y2="131.06"/></g><g id="Red_Particles" data-name="Red Particles"><use width="8.47" height="8.47" transform="translate(253.54 159.42)" xlink:href="#Red_Particle"/><use width="8.47" height="8.47" transform="translate(289.9 139.98)" xlink:href="#Red_Particle"/><use width="8.47" height="8.47" transform="translate(271.35 149.86)" xlink:href="#Red_Particle"/><use width="8.47" height="8.47" transform="translate(278.06 138.69)" xlink:href="#Red_Particle"/><use width="8.47" height="8.47" transform="translate(259.69 148.8)" xlink:href="#Red_Particle"/><use width="8.47" height="8.47" transform="translate(264.7 160.03)" xlink:href="#Red_Particle"/><use width="8.47" height="8.47" transform="translate(282.43 150.29)" xlink:href="#Red_Particle"/><use width="8.47" height="8.47" transform="translate(295.97 128.9)" xlink:href="#Red_Particle"/><use width="8.47" height="8.47" transform="translate(284.33 127.95)" xlink:href="#Red_Particle"/><use width="8.47" height="8.47" transform="translate(302.6 117.8)" xlink:href="#Red_Particle"/><use width="8.47" height="8.47" transform="translate(306.67 129.85)" xlink:href="#Red_Particle"/><use width="8.47" height="8.47" transform="translate(309.64 108.05)" xlink:href="#Red_Particle"/><use width="8.47" height="8.47" transform="translate(315.87 97.22)" xlink:href="#Red_Particle"/><use width="8.47" height="8.47" transform="translate(321.56 86.39)" xlink:href="#Red_Particle"/><use width="8.47" height="8.47" transform="translate(313.71 118.88)" xlink:href="#Red_Particle"/><use width="8.47" height="8.47" transform="translate(241.42 158.41)" xlink:href="#Red_Particle"/><use width="8.47" height="8.47" transform="translate(246.29 169.65)" xlink:href="#Red_Particle"/><use width="8.47" height="8.47" transform="translate(235.06 168.97)" xlink:href="#Red_Particle"/><use width="8.47" height="8.47" transform="translate(223.14 167.75)" xlink:href="#Red_Particle"/><use width="8.47" height="8.47" transform="translate(216.92 178.85)" xlink:href="#Red_Particle"/><use width="8.47" height="8.47" transform="translate(206.09 177.5)" xlink:href="#Red_Particle"/><use width="8.47" height="8.47" transform="translate(194.44 176.82)" xlink:href="#Red_Particle"/><use width="8.47" height="8.47" transform="translate(187.54 186.97)" xlink:href="#Red_Particle"/><use width="8.47" height="8.47" transform="translate(176.44 186.16)" xlink:href="#Red_Particle"/><use width="8.47" height="8.47" transform="translate(164.93 185.35)" xlink:href="#Red_Particle"/><use width="8.47" height="8.47" transform="translate(212.18 166.13)" xlink:href="#Red_Particle"/><use width="8.47" height="8.47" transform="translate(183.48 176.68)" xlink:href="#Red_Particle"/><use width="8.47" height="8.47" transform="translate(172.51 175.2)" xlink:href="#Red_Particle"/><use width="8.47" height="8.47" transform="translate(154.65 193.2)" xlink:href="#Red_Particle"/><use width="8.47" height="8.47" transform="translate(125.95 192.12)" xlink:href="#Red_Particle"/><use width="8.47" height="8.47" transform="translate(113.49 192.25)" xlink:href="#Red_Particle"/><use width="8.47" height="8.47" transform="translate(102.39 191.17)" xlink:href="#Red_Particle"/><use width="8.47" height="8.47" transform="translate(90.07 189.95)" xlink:href="#Red_Particle"/><use width="8.47" height="8.47" transform="translate(85.47 178.58)" xlink:href="#Red_Particle"/><use width="8.47" height="8.47" transform="translate(78.7 188.33)" xlink:href="#Red_Particle"/><use width="8.47" height="8.47" transform="translate(67.6 187.24)" xlink:href="#Red_Particle"/><use width="8.47" height="8.47" transform="translate(74.37 177.9)" xlink:href="#Red_Particle"/><use width="8.47" height="8.47" transform="translate(62.19 176.68)" xlink:href="#Red_Particle"/><use width="8.47" height="8.47" transform="translate(57.45 185.62)" xlink:href="#Red_Particle"/><use width="8.47" height="8.47" transform="translate(52.17 174.52)" xlink:href="#Red_Particle"/><use width="8.47" height="8.47" transform="translate(48.38 164.77)" xlink:href="#Red_Particle"/><use width="8.47" height="8.47" transform="translate(36.47 162.61)" xlink:href="#Red_Particle"/><use width="8.47" height="8.47" transform="translate(30.92 150.96)" xlink:href="#Red_Particle"/><use width="8.47" height="8.47" transform="translate(22.39 147.99)" xlink:href="#Red_Particle"/><use width="8.47" height="8.47" transform="translate(320.47 108.05)" xlink:href="#Red_Particle"/><use width="8.47" height="8.47" transform="matrix(0.77, 0, 0, -0.8, 328.09, 104.98)" xlink:href="#Red_Particle"/><use width="8.47" height="8.47" transform="translate(301.29 140.99) scale(0.8 0.8)" xlink:href="#Red_Particle"/><use width="8.47" height="8.47" transform="translate(295.33 152.63) scale(0.45)" xlink:href="#Red_Particle"/><use width="8.47" height="8.47" transform="translate(277.37 161.7) scale(0.58 0.61)" xlink:href="#Red_Particle"/><use width="8.47" height="8.47" transform="translate(259.37 172.3) scale(0.63)" xlink:href="#Red_Particle"/><use width="8.47" height="8.47" transform="translate(229.54 180.24) scale(0.74)" xlink:href="#Red_Particle"/><use width="8.47" height="8.47" transform="translate(198.91 189.58) scale(0.85 0.82)" xlink:href="#Red_Particle"/><use width="8.47" height="8.47" transform="translate(98.16 180.92)" xlink:href="#Red_Particle"/><use width="8.47" height="8.47" transform="translate(47.38 187.05) scale(0.57)" xlink:href="#Red_Particle"/><use width="8.47" height="8.47" transform="translate(40.39 173.84)" xlink:href="#Red_Particle"/><use width="8.47" height="8.47" transform="translate(31.27 173.24) scale(0.6)" xlink:href="#Red_Particle"/><use width="8.47" height="8.47" transform="translate(25.95 161.97) scale(0.8)" xlink:href="#Red_Particle"/></g><g id="Bubble"><path class="cls-8" d="M355.33,122.25c7.36,45.84-55.33,104.81-137,121.92-7.51,1.58-16.92,2.51-24.33,3.24-4.14,4.39-12.16,31.17-7.89,49.24-30.86-24.59-32.33-33.06-37.22-41.21-62.47-7.65-109.49-37.35-120.78-73.73C14.29,137.32,88.21,91.76,175.51,73.2,264.66,54.24,348,76.36,355.33,122.25Z" transform="translate(-25.91 -65.91)"/><path class="cls-9" d="M345.69,120.34c7.58,29.42-45.87,98.27-128.21,115.39-7.58,1.58-24,5.63-31.22,4.22-3.69,4.58-13.51,28.9-9.4,46-30.78-23.07-22.83-35.63-25.12-38.1-62.74-6.64-111.69-46.33-118-66.35-13.34-42.11,55.58-84,143.57-102.59C267.13,60,334.69,77.6,345.69,120.34Z" transform="translate(-25.91 -65.91)"/></g><g id="Face"><rect class="cls-10" x="138.76" y="43.34" width="11.69" height="43.83"/><rect class="cls-10" x="176.75" y="43.34" width="11.69" height="43.83"/><path class="cls-10" d="M162.93,178.67s7.59,21.16,28.62,20.57,24.25-24,24.25-24,10,20.66-7.3,35.7c-16.59,14.39-38,0-38,0S155.2,198.74,162.93,178.67Z" transform="translate(-25.91 -65.91)"/></g></svg>